<svg xmlns="http://www.w3.org/2000/svg" viewBox="0 0 32 32" fill="none" aria-hidden="true">
  <defs>
    <linearGradient id="lg" x1="4" y1="4" x2="28" y2="28" gradientUnits="userSpaceOnUse">
      <stop offset="0" stop-color="#46CFC5"/>
      <stop offset="1" stop-color="#0B6F6E"/>
    </linearGradient>
  </defs>
  <path d="M27 5c0 9.94-6.06 17-15 17a13 13 0 0 1-3.05-.36C8.74 27.6 7 30 7 30H4c0-7 4-12 9-15a14.7 14.7 0 0 1 4.5-2.2c.55-.18.4-1-.18-.96A18.5 18.5 0 0 0 9 14C9 8.5 14 5 22 5h5Z" fill="url(#lg)"/>
  <rect x="13.2" y="13.2" width="9" height="3.8" rx="1.9" transform="rotate(-35 13.2 13.2)" fill="#fff" opacity="0.95"/>
  <rect x="13.2" y="13.2" width="9" height="3.8" rx="1.9" transform="rotate(-35 13.2 13.2)" fill="none" stroke="#0B5957" stroke-width="0.5"/>
</svg>
